<svg width="24" height="24" viewBox="0 0 24 24" fill="none" xmlns="http://www.w3.org/2000/svg">
<path fill-rule="evenodd" clip-rule="evenodd" d="M2.28571 12C2.28641 9.93317 2.9463 7.92043 4.16944 6.25438C5.39259 4.58833 7.11523 3.35583 9.08695 2.73604C11.0587 2.11625 13.1767 2.14149 15.1331 2.80809C17.0894 3.47468 18.7822 4.74789 19.9653 6.44261C21.1484 8.13733 21.7602 10.1652 21.7116 12.2315C21.663 14.2977 20.9567 16.2947 19.6953 17.9319C18.4339 19.5692 16.6832 20.7615 14.6977 21.3355C12.7121 21.9094 10.5953 21.8351 8.65486 21.1234C9.31419 19.3561 9.95385 17.5815 10.5737 15.8C11.2297 16.2686 12.0766 16.5714 13.1429 16.5714C15.3543 16.5714 17.6857 15.1143 18.2629 12.224C18.9909 8.59543 16.0846 5.14286 12 5.14286C10.2823 5.14286 8.59314 5.83314 7.32914 6.928C6.06286 8.02629 5.14286 9.608 5.14286 11.4286C5.14286 12.3143 5.41029 13.3006 6.04686 13.9497C6.26258 14.1621 6.55307 14.2812 6.85577 14.2814C7.15846 14.2816 7.44912 14.1629 7.66514 13.9509C7.87521 13.7409 7.99532 13.4575 8.00001 13.1605C8.0047 12.8636 7.89362 12.5765 7.69029 12.36C6.792 11.24 7.976 9.39314 8.82629 8.656C9.70971 7.89029 10.8766 7.42857 12 7.42857C14.7737 7.42857 16.4389 9.69029 16.0229 11.776C15.6754 13.5063 14.3589 14.2857 13.1429 14.2857C12.208 14.2857 11.7051 13.8914 11.3829 13.3806C11.5589 12.8274 11.7086 12.3246 11.816 11.9154C12.0354 11.0731 12.168 10.0571 11.4103 9.42514C10.8469 8.95657 10.1817 9.05943 9.77486 9.264C9.01714 9.64114 8.57143 10.5257 8.57143 11.4286C8.57143 11.9326 8.65029 12.7143 8.93371 13.5223C8.19623 15.7218 7.41972 17.9081 6.60457 20.08C5.27502 19.193 4.18512 17.9913 3.43169 16.5817C2.67825 15.1721 2.28461 13.5983 2.28571 12ZM12 0C5.37257 0 0 5.37257 0 12C0 18.6274 5.37257 24 12 24C18.6274 24 24 18.6274 24 12C24 5.37257 18.6274 0 12 0Z" fill="white"/>
</svg>
