<svg width="24" height="24" viewBox="0 0 24 24" fill="none" xmlns="http://www.w3.org/2000/svg">
<path fill-rule="evenodd" clip-rule="evenodd" d="M9.33323 2.6667C7.56514 2.6667 5.86946 3.36909 4.61924 4.61935C3.36901 5.86962 2.66664 7.56534 2.66664 9.33348C2.66664 11.1016 3.36901 12.7973 4.61924 14.0476C5.86946 15.2979 7.56514 16.0003 9.33323 16.0003C11.1013 16.0003 12.797 15.2979 14.0472 14.0476C15.2974 12.7973 15.9998 11.1016 15.9998 9.33348C15.9998 7.56534 15.2974 5.86962 14.0472 4.61935C12.797 3.36909 11.1013 2.6667 9.33323 2.6667ZM2.94106e-07 9.33348C2.81303e-06 7.85513 0.351163 6.39793 1.02456 5.08187C1.69796 3.76582 2.67434 2.62855 3.8733 1.76372C5.07225 0.898885 6.45948 0.331232 7.92076 0.107503C9.38204 -0.116226 10.8756 0.0103677 12.2783 0.47686C13.6811 0.943352 14.953 1.7364 15.9893 2.79069C17.0256 3.84499 17.7966 5.13037 18.2389 6.541C18.6812 7.95163 18.7821 9.44714 18.5333 10.9044C18.2845 12.3617 17.6931 13.739 16.8078 14.9229L23.6091 21.723C23.8593 21.973 23.9999 22.3122 24 22.6659C24.0001 23.0196 23.8597 23.3589 23.6097 23.6091C23.3597 23.8592 23.0206 23.9999 22.6669 24C22.3132 24.0001 21.9739 23.8597 21.7238 23.6097L14.9238 16.8096C13.5365 17.8474 11.8878 18.4786 10.1621 18.6324C8.43645 18.7863 6.70203 18.4568 5.15302 17.6808C3.60401 16.9048 2.30155 15.713 1.39145 14.2388C0.481363 12.7645 -0.000434562 11.066 2.94106e-07 9.33348Z" fill="#C4C4C4"/>
</svg>
