<svg width="24" height="20" viewBox="0 0 24 20" fill="none" xmlns="http://www.w3.org/2000/svg">
<path fill-rule="evenodd" clip-rule="evenodd" d="M15.259 2.28561C14.7356 2.28539 14.2187 2.40108 13.7455 2.62433C13.2724 2.84757 12.8549 3.17281 12.5231 3.57655C12.1913 3.98029 11.9535 4.45248 11.8269 4.95902C11.7003 5.46555 11.688 5.99381 11.791 6.50565C11.8264 6.683 11.8192 6.8662 11.7698 7.04021C11.7204 7.21421 11.6304 7.37404 11.507 7.50657C11.3837 7.63909 11.2305 7.74052 11.0602 7.80252C10.8899 7.86452 10.7072 7.88531 10.5273 7.8632C8.06377 7.56136 5.74147 6.55131 3.84338 4.95613C3.8789 5.64404 4.11835 6.37538 4.63734 7.141L5.41526 8.28829L4.13782 8.83107L3.8915 8.9362C4.07481 9.14532 4.29478 9.35901 4.5411 9.57041C4.87039 9.85153 5.21874 10.1096 5.58368 10.3429L5.59628 10.3509H5.59742L7.37094 11.4239L5.51494 12.3495C5.42328 12.3952 5.33163 12.4363 5.23997 12.4729C5.63906 12.8037 6.07871 13.0824 6.54834 13.3025L8.14084 14.0533L6.80727 15.2006C6.07976 15.8268 5.34767 16.2941 4.39789 16.541C5.85456 17.3149 7.48029 17.718 9.13071 17.7145C14.6369 17.7145 19.0707 13.3322 19.0707 7.96261V7.3684L19.5576 7.02673C20.3183 6.49422 20.8556 5.77431 21.2406 4.95042H18.7659L18.4543 4.29907C18.1673 3.69648 17.7149 3.18743 17.1495 2.83104C16.5841 2.47464 15.929 2.28551 15.2601 2.28561H15.259ZM2.33566 10.6274C2.22755 10.7509 2.14735 10.8962 2.1005 11.0533C2.05365 11.2105 2.04124 11.3758 2.06414 11.5382C2.1936 12.4535 2.74238 13.242 3.34959 13.8442C3.51457 14.0076 3.69101 14.1641 3.87661 14.3138L3.79068 14.3367C3.23961 14.4738 2.49606 14.5024 1.25758 14.3824C1.0237 14.3595 0.788415 14.4089 0.583633 14.5239C0.378852 14.6389 0.214477 14.8139 0.112796 15.0252C0.0111144 15.2365 -0.0229544 15.4739 0.0152084 15.7052C0.0533712 15.9365 0.161919 16.1505 0.326136 16.3181C1.4727 17.487 2.84239 18.4151 4.35438 19.0474C5.86637 19.6798 7.49004 20.0037 9.12957 20C15.6749 20 21.0435 14.9309 21.3471 8.53397C22.8251 7.29641 23.564 5.62005 23.9627 4.09681C24.0071 3.92774 24.0119 3.75079 23.9769 3.57956C23.942 3.40833 23.8681 3.24738 23.761 3.10909C23.6538 2.97081 23.5164 2.85886 23.3591 2.78187C23.2018 2.70488 23.0289 2.66489 22.8537 2.66499H20.1579C19.4985 1.64377 18.5349 0.854287 17.4024 0.407478C16.27 -0.0393319 15.0256 -0.12101 13.8442 0.17392C12.6628 0.468849 11.6038 1.12556 10.8159 2.05178C10.028 2.978 9.55084 4.12716 9.4515 5.3378C7.33962 4.78946 5.45001 3.60179 4.04273 1.93822C3.9181 1.79125 3.75827 1.67806 3.57806 1.60915C3.39786 1.54025 3.20312 1.51787 3.01193 1.54409C2.82074 1.5703 2.63928 1.64427 2.4844 1.75912C2.32952 1.87397 2.20624 2.02598 2.126 2.20105C1.43172 3.71171 1.29882 5.45321 2.0733 7.22442L1.80521 7.33869C1.54866 7.44772 1.3408 7.64634 1.22057 7.89731C1.10035 8.14828 1.07603 8.43437 1.15217 8.70195C1.36527 9.447 1.84417 10.1052 2.33452 10.6274H2.33566Z" fill="white"/>
</svg>
